<svg width="18" height="18" viewBox="0 0 18 18" fill="none" xmlns="http://www.w3.org/2000/svg">
<path opacity="0.4" d="M16.9927 15.9531H11.2984C10.7429 15.9531 10.291 16.4121 10.291 16.9765C10.291 17.5419 10.7429 17.9999 11.2984 17.9999H16.9927C17.5483 17.9999 18.0001 17.5419 18.0001 16.9765C18.0001 16.4121 17.5483 15.9531 16.9927 15.9531Z" fill="white"/>
<path d="M7.30902 3.9041L12.7049 8.26419C12.835 8.36846 12.8573 8.5598 12.7557 8.6931L6.35874 17.0284C5.95662 17.5434 5.36402 17.8347 4.72908 17.8454L1.23696 17.8884C1.05071 17.8906 0.887748 17.7616 0.845419 17.5767L0.0517547 14.126C-0.0858138 13.4918 0.0517547 12.836 0.453878 12.3308L6.88256 3.95569C6.98627 3.82132 7.1778 3.79767 7.30902 3.9041Z" fill="white"/>
<path opacity="0.4" d="M15.1213 5.66544L14.081 6.96401C13.9763 7.09623 13.7879 7.11773 13.6578 7.01238C12.3932 5.98901 9.15503 3.36285 8.2566 2.63509C8.12538 2.52759 8.10739 2.33625 8.21322 2.20295L9.21641 0.957057C10.1265 -0.214663 11.7138 -0.322161 12.9942 0.699064L14.4652 1.87078C15.0684 2.34377 15.4705 2.96726 15.6081 3.62299C15.7668 4.3443 15.5975 5.0527 15.1213 5.66544Z" fill="white"/>
</svg>
