<svg width="46" height="46" viewBox="0 0 46 46" fill="none" xmlns="http://www.w3.org/2000/svg">
<rect y="-0.000488281" width="46.0002" height="46.0007" rx="23.0001" fill="#F3FAFA"/>
<path fill-rule="evenodd" clip-rule="evenodd" d="M25.8392 25.9193C26.3367 25.4026 27.0029 25.0813 27.717 25.0136C28.4311 24.9458 29.1458 25.1362 29.7316 25.5502C30.3174 25.9641 30.7354 26.5743 30.91 27.27C31.0846 27.9657 31.0041 28.701 30.6832 29.3425C30.3622 29.984 29.8221 30.4892 29.1606 30.7667C28.4991 31.0441 27.7601 31.0754 27.0776 30.8548C26.3951 30.6342 25.8142 30.1763 25.4402 29.5642C25.0662 28.9522 24.924 28.2263 25.0392 27.5183L20.1662 25.0753C19.7519 25.5077 19.2177 25.8062 18.6324 25.9324C18.047 26.0587 17.4373 26.0068 16.8816 25.7836C16.326 25.5604 15.8499 25.176 15.5145 24.6799C15.1792 24.1838 15 23.5986 15 22.9998C15 22.401 15.1792 21.8159 15.5145 21.3198C15.8499 20.8237 16.326 20.4393 16.8816 20.2161C17.4373 19.9929 18.047 19.941 18.6324 20.0672C19.2177 20.1935 19.7519 20.492 20.1662 20.9243L25.0392 18.4813C24.924 17.7734 25.0662 17.0475 25.4402 16.4354C25.8142 15.8233 26.3951 15.3655 27.0776 15.1449C27.7601 14.9243 28.4991 14.9556 29.1606 15.233C29.8221 15.5105 30.3622 16.0157 30.6832 16.6572C31.0041 17.2987 31.0846 18.0339 30.91 18.7297C30.7354 19.4254 30.3174 20.0355 29.7316 20.4495C29.1458 20.8635 28.4311 21.0538 27.717 20.9861C27.0029 20.9184 26.3367 20.597 25.8392 20.0803L20.9622 22.5183C21.0135 22.8369 21.0135 23.1617 20.9622 23.4803L25.8392 25.9183V25.9193ZM28.0002 18.9993C28.2654 18.9993 28.5197 18.894 28.7073 18.7064C28.8948 18.5189 29.0002 18.2646 29.0002 17.9993C29.0002 17.7341 28.8948 17.4798 28.7073 17.2922C28.5197 17.1047 28.2654 16.9993 28.0002 16.9993C27.735 16.9993 27.4806 17.1047 27.2931 17.2922C27.1055 17.4798 27.0002 17.7341 27.0002 17.9993C27.0002 18.2646 27.1055 18.5189 27.2931 18.7064C27.4806 18.894 27.735 18.9993 28.0002 18.9993ZM28.0002 28.9993C28.2654 28.9993 28.5197 28.894 28.7073 28.7064C28.8948 28.5189 29.0002 28.2646 29.0002 27.9993C29.0002 27.7341 28.8948 27.4798 28.7073 27.2922C28.5197 27.1047 28.2654 26.9993 28.0002 26.9993C27.735 26.9993 27.4806 27.1047 27.2931 27.2922C27.1055 27.4798 27.0002 27.7341 27.0002 27.9993C27.0002 28.2646 27.1055 28.5189 27.2931 28.7064C27.4806 28.894 27.735 28.9993 28.0002 28.9993ZM18.0002 23.9993C18.2654 23.9993 18.5197 23.894 18.7073 23.7064C18.8948 23.5189 19.0002 23.2646 19.0002 22.9993C19.0002 22.7341 18.8948 22.4798 18.7073 22.2922C18.5197 22.1047 18.2654 21.9993 18.0002 21.9993C17.735 21.9993 17.4806 22.1047 17.2931 22.2922C17.1055 22.4798 17.0002 22.7341 17.0002 22.9993C17.0002 23.2646 17.1055 23.5189 17.2931 23.7064C17.4806 23.894 17.735 23.9993 18.0002 23.9993Z" fill="black"/>
</svg>
